<svg width="186" height="18" viewBox="0 0 186 18" fill="none" xmlns="http://www.w3.org/2000/svg">
<path d="M3.2928 12.296L3.9648 10.504H10.9088L11.5808 12.296H3.2928ZM7.392 4.8592L4.7488 11.0864L4.5696 11.4896L2.24 17H0.112L7.392 0.536L14.672 17H12.544L10.2592 11.624L10.08 11.176L7.392 4.8592ZM19.7155 1.32H21.6195V11.848C21.6195 12.9232 21.9107 13.7893 22.4931 14.4464C23.0755 15.1035 23.9267 15.432 25.0467 15.432C26.1667 15.432 27.0179 15.1035 27.6003 14.4464C28.1827 13.7893 28.4739 12.9232 28.4739 11.848V1.32H30.3779V11.848C30.3779 12.6245 30.251 13.3413 29.9971 13.9984C29.7582 14.6555 29.3998 15.2229 28.9219 15.7008C28.459 16.1787 27.899 16.552 27.2419 16.8208C26.5848 17.0896 25.8531 17.224 25.0467 17.224C24.2403 17.224 23.5086 17.0896 22.8515 16.8208C22.1944 16.552 21.627 16.1787 21.1491 15.7008C20.6862 15.2229 20.3278 14.6555 20.0739 13.9984C19.835 13.3413 19.7155 12.6245 19.7155 11.848V1.32ZM35.5294 3.112V1.32H45.4974V3.112H41.4654V17H39.5614V3.112H35.5294ZM51.8107 9.384V7.592H62.5627V9.384H51.8107ZM61.2859 1.32H63.1899V17H61.2859V1.32ZM50.7579 1.32H52.6619V17H50.7579V1.32ZM71.1384 9.16C71.1384 10.3397 71.3922 11.3925 71.9 12.3184C72.4226 13.2443 73.132 13.976 74.028 14.5136C74.924 15.0512 75.9394 15.32 77.0744 15.32C78.2242 15.32 79.2397 15.0512 80.1208 14.5136C81.0168 13.976 81.7186 13.2443 82.2264 12.3184C82.749 11.3925 83.0104 10.3397 83.0104 9.16C83.0104 7.98027 82.749 6.92747 82.2264 6.0016C81.7186 5.07573 81.0168 4.344 80.1208 3.8064C79.2397 3.2688 78.2242 3 77.0744 3C75.9394 3 74.924 3.2688 74.028 3.8064C73.132 4.344 72.4226 5.07573 71.9 6.0016C71.3922 6.92747 71.1384 7.98027 71.1384 9.16ZM69.1224 9.16C69.1224 8.01013 69.3165 6.94987 69.7048 5.9792C70.108 4.9936 70.668 4.1424 71.3848 3.4256C72.1016 2.69387 72.9453 2.1264 73.916 1.7232C74.8866 1.30507 75.9394 1.096 77.0744 1.096C78.2242 1.096 79.277 1.30507 80.2328 1.7232C81.2034 2.1264 82.0472 2.69387 82.764 3.4256C83.4808 4.1424 84.0333 4.9936 84.4216 5.9792C84.8248 6.94987 85.0264 8.01013 85.0264 9.16C85.0264 10.2949 84.8248 11.3552 84.4216 12.3408C84.0333 13.3264 83.4808 14.1851 82.764 14.9168C82.0472 15.6336 81.2034 16.2011 80.2328 16.6192C79.277 17.0224 78.2242 17.224 77.0744 17.224C75.9394 17.224 74.8866 17.0224 73.916 16.6192C72.9453 16.2011 72.1016 15.6336 71.3848 14.9168C70.668 14.1851 70.108 13.3264 69.7048 12.3408C69.3165 11.3552 69.1224 10.2949 69.1224 9.16ZM93.7632 9.272H95.8912L101.491 17H99.1392L93.7632 9.272ZM90.9632 1.32H92.8672V17H90.9632V1.32ZM92.016 3V1.32H95.2192C96.2347 1.32 97.1382 1.51413 97.9296 1.9024C98.736 2.27573 99.3707 2.81333 99.8336 3.5152C100.312 4.21707 100.55 5.05333 100.55 6.024C100.55 6.97973 100.312 7.816 99.8336 8.5328C99.3707 9.23467 98.736 9.77973 97.9296 10.168C97.1382 10.5413 96.2347 10.728 95.2192 10.728H92.016V9.048H95.2192C95.8912 9.048 96.4811 8.92853 96.9888 8.6896C97.5115 8.45067 97.9147 8.1072 98.1984 7.6592C98.4971 7.2112 98.6464 6.66613 98.6464 6.024C98.6464 5.38187 98.4971 4.8368 98.1984 4.3888C97.9147 3.9408 97.5115 3.59733 96.9888 3.3584C96.4811 3.11947 95.8912 3 95.2192 3H92.016ZM128.581 1.32H130.485V17.784L118.613 5.3296V17H116.709V0.536L128.581 12.9904V1.32ZM138.827 12.296L139.499 10.504H146.443L147.115 12.296H138.827ZM142.926 4.8592L140.283 11.0864L140.104 11.4896L137.774 17H135.646L142.926 0.536L150.206 17H148.078L145.793 11.624L145.614 11.176L142.926 4.8592ZM157.534 6.4048L156.369 17H154.465L156.369 0.536L162.641 11.8928L168.913 0.536L170.817 17H168.913L167.749 6.4048L162.641 15.544L157.534 6.4048ZM177.797 17V15.208H185.704V17H177.797ZM177.797 3.112V1.32H185.704V3.112H177.797ZM177.797 9.384V7.592H185.256V9.384H177.797ZM176.744 1.32H178.648V17H176.744V1.32Z" fill="white"/>
</svg>
